<svg xmlns="http://www.w3.org/2000/svg" xmlns:xlink="http://www.w3.org/1999/xlink" width="270.741" height="270.741" viewBox="0 0 270.741 270.741"><defs><style>.a{fill:url(#a);}.b{fill:url(#b);}.c{opacity:0.3;}.d{fill:#565656;}.e{fill:#090909;opacity:0.31;}.f{fill:#2c2c2c;}</style><radialGradient id="a" cx="0.034" cy="0.479" r="0.766" gradientTransform="translate(-0.135 0.022) rotate(-16.411)" gradientUnits="objectBoundingBox"><stop offset="0" stop-color="#474747"/><stop offset="1"/></radialGradient><radialGradient id="b" cx="0.034" cy="0.479" r="0.488" gradientTransform="translate(0.008 0) rotate(0.942)" gradientUnits="objectBoundingBox"><stop offset="0" stop-color="#474747"/><stop offset="0.647" stop-color="#464343"/><stop offset="1" stop-color="#464141"/></radialGradient></defs><g transform="translate(-1490.13 -333.13)"><circle class="a" cx="98" cy="98" r="98" transform="translate(1588.13 333.13) rotate(30)"/><circle class="b" cx="98" cy="98" r="98" transform="translate(1591.13 336.13) rotate(30)"/><circle class="c" cx="98" cy="98" r="98" transform="translate(1591.13 336.13) rotate(30)"/><rect class="d" width="28" height="184" rx="14" transform="translate(1660.876 383.058) rotate(30)"/><path class="e" d="M-4125.876,2984.616a12,12,0,0,1-4.392-16.392l78-135.1a12,12,0,0,1,16.392-4.393,11.942,11.942,0,0,1,4.44,4.472,13.959,13.959,0,0,1-1.315,10.921l-78,135.1a13.981,13.981,0,0,1-10.576,6.915A11.959,11.959,0,0,1-4125.876,2984.616Z" transform="translate(5710.876 -2434.942)"/><rect class="f" width="24" height="180" rx="12" transform="translate(1662.608 385.79) rotate(30)"/></g></svg>