<svg xmlns="http://www.w3.org/2000/svg" width="395.477" height="200" viewBox="0 0 395.477 200"><defs><style>.a{opacity:0.78;isolation:isolate;}.b,.d,.f{fill:none;}.b,.f{stroke:#fff;}.b{stroke-width:4px;}.c,.e{fill:#fff;}.c,.d,.f{font-size:88px;font-family:NoirStd-Light, NoirStd ☞;font-weight:300;}.f{stroke-width:3px;}</style></defs><g class="a" transform="translate(-1398.867 -59.626)"><path class="b" d="M66.567-188.786q6.148,1.255,10.1,7.277a22.736,22.736,0,0,1,3.952,12.673q0,11.167-7.34,18.256T53.518-143.49H24.408v-84.318H46.617q13.928,0,21.958,5.709t8.03,16.374a19.848,19.848,0,0,1-2.949,10.414A14.805,14.805,0,0,1,66.567-188.786ZM32.438-219.778v28.106H49.5q19.072,0,19.072-14.053T49.5-219.778ZM51.51-151.52q9.912,0,15.5-4.015t5.584-11.92q0-8.03-5.584-12.108t-15.5-4.078H32.438v32.121Z" transform="translate(1376.459 298.277)"/><text class="c" transform="translate(1462.344 153.626)"><tspan x="0" y="0">ANDER</tspan></text><text class="d" transform="translate(1484.344 228.626)"><tspan x="0" y="0">S</tspan><tspan class="e" y="0">NATCH</tspan></text><text class="f" transform="translate(1484.344 228.626)"><tspan x="0" y="0">S</tspan></text></g></svg>