<svg xmlns="http://www.w3.org/2000/svg" xmlns:xlink="http://www.w3.org/1999/xlink" width="450.626" height="241.418" viewBox="0 0 450.626 241.418"><defs><style>.a{fill:#333;}.b{opacity:0.32;}.c{fill:#1e1e1e;}.d{opacity:0.35;fill:url(#a);}</style><linearGradient id="a" x1="0.371" y1="1" x2="0.665" y2="0.383" gradientUnits="objectBoundingBox"><stop offset="0" stop-color="#313030"/><stop offset="1" stop-color="#444343"/></linearGradient></defs><g transform="translate(-1404 -82)"><path class="a" d="M39.141,0l311,.283c12.949,0,55.069,18.635,70.839,28.4,10.191,6.31,29.646,23.449,29.646,32.137V202.187a39.186,39.186,0,0,1-39.141,39.23H39.141A39.186,39.186,0,0,1,0,202.187V39.23A39.186,39.186,0,0,1,39.141,0Z" transform="translate(1404 82)"/><rect class="b" width="449" height="240" rx="39" transform="translate(1404 82)"/><path class="c" d="M39,0,348.878.282c12.9,0,54.87,18.525,70.583,28.233C429.616,34.788,449,51.826,449,60.463V201a39,39,0,0,1-39,39H39A39,39,0,0,1,0,201V39A39,39,0,0,1,39,0Z" transform="translate(1404 82)"/><path class="d" d="M5907.822-2742.718s33.737,9.757,61.466,26.968c20.011,13.207,27.151,20.295,32.149,32.471-19.318-6.687-22.671-19.285-36.788-3.311-2.081,6.5-22.571,3.854-35.379-10.406S5907.822-2742.718,5907.822-2742.718Z" transform="translate(-4148 2825)"/></g></svg>